<svg xmlns="http://www.w3.org/2000/svg" viewBox="0 0 670.2 180.1" width="670.2" height="180.1" aria-labelledby="logo-ags-title" aria-describedby="logo-ags-desc">
    <title id="logo-ags-title">Artificial Grass Superstore Logo</title>
    <desc id="logo-ags-desc">A text logo with a green box of stylized grass representing Turf.</desc>
  <defs>
    <style>
      .logo-ags-svg01 {
        fill: #fff;
      }
      .logo-ags-svg02 {
        fill: #99ca3c;
      }
    </style>
  </defs>
  <path class="logo-ags-svg01" d="m154.3,104.1h20.3l-9.9-24-10.4,24Zm41.3,19c-.9.3-2,.4-3.3.4-.9,0-2-.1-3.3-.3-1.2-.2-2.5-.7-3.8-1.4s-2.6-1.8-3.8-3.3c-1.2-1.4-2.3-3.3-3.2-5.7l-2.1-5.4h-23.2l-6.6,15.7h-3.6l23.2-54.6h2.5l18.2,44.2c.7,1.5,1.3,2.9,1.9,3.9.6,1.1,1.2,1.9,1.9,2.6s1.5,1.2,2.3,1.5,1.8.6,3,.7v1.7h-.1Z"/>
  <path class="logo-ags-svg01" d="m200,94.2c0-2.5-.3-4.5-1-6s-2.3-2.3-4.8-2.3h-.8v-1.7h6.6c2.1,0,3.7.3,4.8.9s1.8,1.5,2.3,2.8h.4c.8-1,2.1-2.1,3.7-3.1,1.7-1,3.7-1.5,6.2-1.5.8,0,1.7.1,2.6.3.9.2,1.7.5,2.3,1,.6.4,1.1,1,1.6,1.6.4.6.9,1.3,1.3,2.2l-3.3,2.5c-.6-.8-1.5-1.4-2.7-1.9-1.2-.4-2.5-.6-3.9-.6-1.7,0-3.2.4-4.5,1.1-1.4.7-2.5,1.8-3.3,3v30.6h-7.4v-28.9h-.1Z"/>
  <path class="logo-ags-svg01" d="m233.7,87.6h-5.8v-3.3h5.8v-7.4l4.1-5h3.3v12.4h9.9v3.3h-9.9v25.6c0,5,1.9,7.4,5.8,7.4,1.4,0,2.6-.2,3.6-.5.9-.3,1.8-.7,2.6-1.2l.8,1.7c-.4.3-1,.7-1.5,1.1-.6.4-1.3.7-2.1,1.1-.8.3-1.8.6-2.9.8-1.1.2-2.4.3-3.8.3-2.9,0-5.3-.9-7.2-2.6-1.8-1.7-2.8-4.4-2.8-8.2v-25.5h.1Z"/>
  <path class="logo-ags-svg01" d="m268.3,75.6c0,1.2-.3,2.1-1,2.7-.7.7-1.6,1-2.8,1-1.3,0-2.4-.5-3.3-1.6-.9-1-1.4-2.3-1.4-3.7,0-1.2.3-2.1,1-2.7.7-.7,1.6-1,2.8-1,1.3,0,2.4.5,3.3,1.6,1,1,1.4,2.2,1.4,3.7m.5,47.5h-7.4v-28.9c0-2.5-.3-4.5-1-6s-2.3-2.3-4.8-2.3h-1.7v-1.7h7.4c1.4,0,2.6.1,3.6.4,1,.2,1.7.7,2.3,1.5.6.7,1,1.8,1.2,3.1.2,1.3.3,3,.3,5v28.9h.1Z"/>
  <path class="logo-ags-svg01" d="m296.1,71c-.9,0-1.8.2-2.6.5-.8.4-1.5,1-2.1,1.8s-1.1,1.9-1.4,3.3-.5,3.1-.5,5.1v2.5h11.6v3.3h-11.6v35.6h-7.4v-35.5h-5.8v-3.3h5.8v-2.5c0-2.9.4-5.2,1.3-7.1.9-1.8,2-3.3,3.3-4.3s2.9-1.7,4.6-2.1,3.5-.6,5.3-.6c3.4,0,5.8.4,7,1.2.6.4,1.1,1,1.6,1.6.4.6.9,1.3,1.3,2.2l-2.5,2.1c-1.7-2.5-4.3-3.8-7.9-3.8"/>
  <path class="logo-ags-svg01" d="m316.5,75.6c0,1.2-.3,2.1-1,2.7-.7.7-1.6,1-2.8,1-1.3,0-2.4-.5-3.3-1.6-.9-1-1.4-2.3-1.4-3.7,0-1.2.3-2.1,1-2.7.7-.7,1.6-1,2.8-1,1.3,0,2.4.5,3.3,1.6,1,1,1.4,2.2,1.4,3.7m.5,47.5h-7.4v-28.9c0-2.5-.3-4.5-1-6s-2.3-2.3-4.8-2.3h-1.7v-1.7h7.4c1.4,0,2.6.1,3.6.4s1.7.7,2.3,1.5c.6.7,1,1.8,1.2,3.1.2,1.3.3,3,.3,5v28.9h.1Z"/>
  <path class="logo-ags-svg01" d="m344.6,83.4c2.9,0,5.4.2,7.4.7,2,.4,3.5,1.2,4.6,2.2.5.5.9,1,1.2,1.7.3.6.5,1.3.6,2.2.1.8.2,1.8.2,2.9v4h-1.7c-.2-3.5-1.3-6.1-3.3-7.8-2-1.7-4.5-2.5-7.4-2.5-2.1,0-3.9.4-5.4,1.3s-2.7,2.1-3.7,3.6-1.7,3.3-2.2,5.4-.7,4.3-.7,6.7.2,4.6.7,6.7,1.2,3.9,2.2,5.4,2.2,2.7,3.7,3.6,3.3,1.3,5.4,1.3c2.9,0,5.3-.6,7.1-1.7,1.8-1.2,3.4-2.8,4.9-4.9l1.7,1.2c-1.9,3.1-4.1,5.4-6.6,6.7-2.5,1.3-5.4,2-8.7,2-3.1,0-5.8-.5-8.1-1.6-2.3-1.1-4.2-2.5-5.7-4.3s-2.6-4-3.4-6.4c-.7-2.5-1.1-5.1-1.1-7.9s.4-5.4,1.1-7.9,1.9-4.6,3.4-6.4,3.4-3.3,5.7-4.3c2.4-1.3,5.1-1.9,8.1-1.9"/>
  <path class="logo-ags-svg01" d="m376.8,75.6c0,1.2-.3,2.1-1,2.7-.7.7-1.6,1-2.8,1-1.3,0-2.4-.5-3.3-1.6-.9-1-1.4-2.3-1.4-3.7,0-1.2.3-2.1,1-2.7.7-.7,1.6-1,2.8-1,1.3,0,2.4.5,3.3,1.6,1,1,1.4,2.2,1.4,3.7m.5,47.5h-7.4v-28.9c0-2.5-.3-4.5-1-6s-2.3-2.3-4.8-2.3h-1.7v-1.7h7.4c1.4,0,2.6.1,3.6.4,1,.2,1.7.7,2.3,1.5.6.7,1,1.8,1.2,3.1.2,1.3.3,3,.3,5v28.9h.1Z"/>
  <path class="logo-ags-svg01" d="m413.1,123.1l-2.9-3.7h-.4c-.8,1-2.2,2.1-4.1,3.1s-4.4,1.5-7.5,1.5c-1.2,0-2.4-.2-3.8-.5-1.4-.4-2.7-1-3.9-1.9-1.2-.9-2.2-2.1-3.1-3.6-.8-1.5-1.2-3.4-1.2-5.6s.6-4.1,1.7-5.6c1.2-1.5,2.7-2.7,4.6-3.6s4.2-1.5,6.7-1.9,5.2-.5,8-.5h2.5c0-2.9-.2-5.2-.7-7.1-.4-1.8-1-3.3-1.8-4.3s-1.7-1.7-2.8-2.1c-1.1-.4-2.2-.6-3.4-.6-2.3,0-4.3.5-5.8,1.5-1.6,1-2.7,2.8-3.3,5.5h-3.7c0-1.4.1-2.8.2-4,.2-1.2.8-2.4,1.8-3.4.5-.5,1.2-.9,2.1-1.3s1.9-.7,3-.9c1.1-.2,2.3-.4,3.5-.5s2.5-.2,3.8-.2c1.9,0,3.7.2,5.4.6,1.7.4,3.3,1.2,4.6,2.5,1.4,1.2,2.4,3,3.2,5.3.8,2.3,1.2,5.3,1.2,9v22.3h-3.9Zm-3.3-19h-2.5c-4.1,0-7.4.8-9.7,2.3-2.3,1.5-3.5,3.5-3.5,6,0,1.3.2,2.5.7,3.5.4,1,1,1.8,1.7,2.5s1.5,1.1,2.5,1.4c.9.3,1.9.5,3,.5,2,0,3.7-.5,4.8-1.5,1.2-1,2.2-2.2,3-3.4v-11.3Z"/>
  <path class="logo-ags-svg01" d="m433.7,123.1h-7.4v-44.6c0-2.5-.3-4.5-1-6s-2.3-2.3-4.8-2.3h-1.7v-1.7h7.4c1.4,0,2.6.1,3.6.4,1,.2,1.7.7,2.3,1.5.6.7,1,1.8,1.2,3.1.2,1.3.3,3,.3,5v44.6h.1Z"/>
  <path class="logo-ags-svg01" d="m488.4,70.2c-3.5,0-6.5.7-9.1,2.2-2.5,1.4-4.6,3.3-6.2,5.6-1.6,2.3-2.8,5-3.5,7.9-.7,3-1.1,6-1.1,9.1,0,5,.5,9.1,1.6,12.5,1,3.4,2.5,6.1,4.3,8.2s3.9,3.5,6.3,4.4c2.4.9,4.9,1.3,7.6,1.3,3,0,5.5-.3,7.4-.8,2-.5,3.8-1.2,5.4-2.1v-14.4c0-1.2.1-2.3.4-3.4.2-1.1.8-2.2,1.8-3.1.9-.9,2.3-1.7,4.1-2.3,1.8-.6,4.3-.9,7.4-.9v1.7c-1.3,0-2.4.2-3.2.5-.8.4-1.5.9-1.9,1.6s-.7,1.5-.9,2.5c-.1,1-.2,2.1-.2,3.3v15.5c-3,1.8-6.1,3.1-9.3,4-3.3.8-6.9,1.2-10.9,1.2s-7.9-.8-11.4-2.3c-3.4-1.5-6.4-3.7-8.9-6.4-2.5-2.7-4.4-5.9-5.8-9.5s-2.1-7.5-2.1-11.6.6-7.6,1.8-11c1.2-3.4,2.9-6.4,5.1-8.9s4.9-4.5,8.1-6,6.7-2.2,10.6-2.2c5,0,9.2.6,12.6,1.9s5.8,2.9,7.3,4.7c.5.6.9,1.4,1.2,2.3s.5,1.9.6,2.9.2,2,.2,3.1v3h-1.7c-1-4.8-3-8.4-5.9-10.8-2.7-2.5-6.7-3.7-11.7-3.7"/>
  <path class="logo-ags-svg01" d="m521.8,94.2c0-2.5-.3-4.5-1-6s-2.3-2.3-4.8-2.3h-.8v-1.7h6.6c2.1,0,3.7.3,4.8.9s1.8,1.5,2.3,2.8h.4c.8-1,2.1-2.1,3.7-3.1,1.7-1,3.7-1.5,6.2-1.5.8,0,1.7.1,2.6.3.9.2,1.7.5,2.3,1,.6.4,1.1,1,1.6,1.6s.9,1.3,1.3,2.2l-3.3,2.5c-.6-.8-1.5-1.4-2.7-1.9-1.2-.4-2.5-.6-3.9-.6-1.7,0-3.2.4-4.5,1.1-1.4.7-2.5,1.8-3.3,3v30.6h-7.4v-28.9h-.1Z"/>
  <path class="logo-ags-svg01" d="m575.8,123.1l-2.9-3.7h-.4c-.8,1-2.2,2.1-4.1,3.1-1.9,1-4.4,1.5-7.5,1.5-1.2,0-2.4-.2-3.8-.5-1.4-.4-2.7-1-3.9-1.9-1.2-.9-2.2-2.1-3.1-3.6-.8-1.5-1.2-3.4-1.2-5.6s.6-4.1,1.7-5.6c1.2-1.5,2.7-2.7,4.6-3.6,1.9-.9,4.2-1.5,6.7-1.9s5.2-.5,8-.5h2.5c0-2.9-.2-5.2-.7-7.1-.4-1.8-1-3.3-1.8-4.3s-1.7-1.7-2.8-2.1-2.2-.6-3.4-.6c-2.3,0-4.3.5-5.8,1.5-1.6,1-2.7,2.8-3.3,5.5h-3.7c0-1.4.1-2.8.2-4,.2-1.2.8-2.4,1.8-3.4.5-.5,1.2-.9,2.1-1.3.9-.4,1.9-.7,3-.9,1.1-.2,2.3-.4,3.5-.5s2.5-.2,3.8-.2c1.9,0,3.7.2,5.4.6s3.3,1.2,4.6,2.5,2.4,3,3.2,5.3,1.2,5.3,1.2,9v22.3h-3.9Zm-3.3-19h-2.5c-4.1,0-7.4.8-9.7,2.3s-3.5,3.5-3.5,6c0,1.3.2,2.5.7,3.5.4,1,1,1.8,1.7,2.5s1.5,1.1,2.5,1.4c.9.3,1.9.5,3,.5,2,0,3.7-.5,4.8-1.5,1.2-1,2.2-2.2,3-3.4v-11.3Z"/>
  <path class="logo-ags-svg01" d="m615.9,113.2c0,1.8-.4,3.3-1.1,4.6-.7,1.3-1.8,2.4-3,3.3-1.3.9-2.8,1.6-4.6,2.1s-3.7.7-5.7.7c-3.3,0-6-.3-8.1-.9-2.1-.6-3.7-1.4-4.7-2.4-1-1-1.7-2.2-1.8-3.6-.2-1.3-.2-3-.2-5.1h1.7c.4,2.7,1.6,4.8,3.5,6.4,1.9,1.5,4.6,2.3,8.1,2.3,3.1,0,5.4-.6,6.9-1.7s2.2-2.5,2.2-4.1c0-1.7-.6-3-1.9-4.2-1.2-1.1-3.1-2.2-5.6-3.3l-5-2.1c-3.1-1.3-5.6-2.8-7.3-4.5s-2.6-4-2.6-6.7c0-1.8.3-3.3,1-4.6.7-1.3,1.6-2.4,2.9-3.3,1.2-.9,2.6-1.6,4.3-2.1s3.5-.7,5.5-.7c3.1,0,5.7.3,7.8.9,2,.6,3.6,1.4,4.6,2.4s1.7,2.2,1.8,3.6c.2,1.3.2,3,.2,5.1h-1.7c-.4-2.7-1.6-4.8-3.4-6.4-1.8-1.5-4.4-2.3-7.7-2.3-2.7,0-4.8.6-6.2,1.7s-2.1,2.5-2.1,4.1c0,1.4.6,2.7,1.7,3.9,1.2,1.2,2.8,2.2,4.9,3.1l5,2.1c3.5,1.4,6.2,3,8,4.7,1.7,1.8,2.6,4.1,2.6,7"/>
  <path class="logo-ags-svg01" d="m649.7,113.2c0,1.8-.4,3.3-1.1,4.6-.7,1.3-1.8,2.4-3,3.3-1.3.9-2.8,1.6-4.6,2.1s-3.7.7-5.7.7c-3.3,0-6-.3-8.1-.9-2.1-.6-3.7-1.4-4.7-2.4-1-1-1.7-2.2-1.8-3.6-.2-1.3-.2-3-.2-5.1h1.7c.4,2.7,1.6,4.8,3.5,6.4,1.9,1.5,4.6,2.3,8.1,2.3,3.1,0,5.4-.6,6.9-1.7s2.2-2.5,2.2-4.1c0-1.7-.6-3-1.9-4.2-1.2-1.1-3.1-2.2-5.6-3.3l-5-2.1c-3.1-1.3-5.6-2.8-7.3-4.5s-2.6-4-2.6-6.7c0-1.8.3-3.3,1-4.6.7-1.3,1.6-2.4,2.9-3.3,1.2-.9,2.6-1.6,4.3-2.1s3.5-.7,5.5-.7c3.1,0,5.7.3,7.8.9,2,.6,3.6,1.4,4.6,2.4s1.7,2.2,1.8,3.6c.2,1.3.2,3,.2,5.1h-1.7c-.4-2.7-1.6-4.8-3.4-6.4-1.8-1.5-4.4-2.3-7.7-2.3-2.7,0-4.8.6-6.2,1.7s-2.1,2.5-2.1,4.1c0,1.4.6,2.7,1.7,3.9,1.2,1.2,2.8,2.2,4.9,3.1l5,2.1c3.5,1.4,6.2,3,8,4.7,1.7,1.8,2.6,4.1,2.6,7"/>
  <path class="logo-ags-svg01" d="m156.9,150.8c0,.8-.2,1.6-.6,2.3-.4.7-.9,1.2-1.5,1.7-.7.5-1.4.8-2.2,1-.9.2-1.8.3-2.7.3-1.2,0-2.6-.1-3.8-.4-.8-.2-1.7-.6-2.3-1.2-.5-.5-.9-1.1-.9-1.9-.1-.8-.1-1.6-.1-2.4v-.4h1.5l.1.3c.2,1.1.6,2,1.4,2.7.9.8,2.3,1,3.4,1,.9,0,2.1-.1,2.9-.7.5-.4.8-.9.8-1.6,0-.6-.2-1.2-.7-1.6-.7-.6-1.6-1.1-2.4-1.4l-2.3-.9c-1.2-.5-2.5-1.2-3.5-2.1-.9-.9-1.3-2-1.3-3.3,0-.8.1-1.6.5-2.3.3-.7.8-1.2,1.4-1.7.6-.5,1.3-.8,2.1-1s1.7-.3,2.6-.3c1.2,0,2.5.1,3.6.4.8.2,1.7.6,2.3,1.2.5.5.9,1.1.9,1.9.1.8.1,1.6.1,2.4v.4h-1.5l-.1-.3c-.2-1-.6-2-1.4-2.7-.9-.8-2.1-1-3.3-1-.9,0-1.9.1-2.6.7-.5.4-.8.9-.8,1.6,0,.6.3,1.1.7,1.5.6.6,1.3,1,2.1,1.3l2.3.9c1.3.5,2.7,1.2,3.8,2.2,1.1.9,1.5,2.1,1.5,3.4m272.4-5.7c0-1.5-.2-3.2-.9-4.4-.6-1-1.4-1.5-2.6-1.5-.5,0-.9.1-1.3.4-.5.3-.8.8-1.1,1.3-.4.6-.6,1.3-.8,2-.2.7-.3,1.5-.3,2.2h7Zm-7.1,2.4c0,.8.1,1.6.3,2.4.2.8.5,1.5.9,2.1s.9,1,1.5,1.4c.6.3,1.3.5,1.9.5,1,0,2-.2,2.9-.7.8-.5,1.5-1.3,2.1-2.1l.2-.3,1.4,1-.2.3c-.8,1.3-1.8,2.5-3.1,3.2-1.2.7-2.6,1-4,1-1.3,0-2.5-.2-3.6-.8-1-.5-1.9-1.2-2.6-2.1-.7-.9-1.2-1.9-1.6-3.1-.4-1.2-.5-2.5-.5-3.7,0-1.3.2-2.5.5-3.7.3-1.1.8-2.1,1.6-3,.7-.9,1.5-1.6,2.5-2.1s2.2-.8,3.4-.8c2.2,0,4.5.5,6,2.3s1.9,4.1,1.9,6.4l-.1,1.9h-11.4v-.1Zm-27.3-8.8c.4-.4,1-.8,1.5-1.1.9-.5,2-.7,3-.7.4,0,.9.1,1.3.1.4.1.9.2,1.2.5.3.2.6.5.8.8.2.3.4.7.6,1l.2.3-2.1,1.6-.2-.3c-.3-.3-.6-.6-1-.7-.5-.2-1.1-.3-1.7-.3-.7,0-1.3.1-1.9.5-.5.3-1,.7-1.3,1.1v14.2h-4.2v-13.6c0-.8-.1-1.8-.4-2.6-.3-.7-1.1-.8-1.8-.8h-.8v-1.6h3.4c.8,0,1.7.1,2.4.5.4.4.8.7,1,1.1Zm-25.5,7.8c0-1-.1-2-.3-2.9-.2-.8-.5-1.6-.9-2.3-.4-.6-.8-1.1-1.4-1.5-.5-.4-1.1-.5-1.7-.5s-1.2.2-1.7.5c-.6.4-1,.9-1.4,1.5-.4.7-.7,1.5-.9,2.3-.2,1-.3,1.9-.3,2.9s.1,2,.3,2.9c.2.8.5,1.6.9,2.3.4.6.8,1.1,1.4,1.5.5.4,1.1.5,1.7.5s1.2-.2,1.7-.5c.6-.4,1-.9,1.4-1.5.4-.7.7-1.5.9-2.3.2-.9.3-1.9.3-2.9Zm-13,0c0-1.3.2-2.5.6-3.7.4-1.1.9-2.2,1.7-3.1.8-.9,1.7-1.6,2.7-2.1,1.2-.6,2.4-.8,3.7-.8s2.5.2,3.7.8c1.1.5,2,1.2,2.7,2.1.8.9,1.3,1.9,1.7,3.1.4,1.2.6,2.5.6,3.7,0,1.3-.2,2.5-.6,3.7-.4,1.1-.9,2.2-1.7,3.1-.8.9-1.7,1.6-2.7,2.1-1.2.5-2.4.8-3.7.8s-2.5-.2-3.7-.8c-1.1-.5-2-1.2-2.7-2.1-.8-.9-1.3-1.9-1.7-3.1-.4-1.2-.6-2.5-.6-3.7Zm-24.4-7h-2.6v-2.3h2.6v-3.1l2.1-2.5h2.1v5.6h4.5v2.3h-4.5v11.3c0,1.6.4,3,2.2,3,.5,0,1,0,1.5-.2.4-.1.8-.3,1.1-.5l.4-.2.7,1.4-.3.2c-.2.2-.5.3-.7.5-.3.2-.7.4-1,.5-.4.2-.9.3-1.4.4-.6.1-1.2.2-1.8.2-1.3,0-2.5-.4-3.5-1.3-1.1-1-1.4-2.6-1.4-4v-11.3h0Zm-17.6,11.3c0,.8-.2,1.6-.6,2.3s-.9,1.2-1.5,1.7c-.7.5-1.4.8-2.2,1-.9.2-1.8.3-2.7.3-1.2,0-2.6-.1-3.8-.4-.8-.2-1.7-.6-2.3-1.2-.5-.5-.9-1.1-.9-1.9-.1-.8-.1-1.6-.1-2.4v-.4h1.5l.1.3c.2,1.1.6,2,1.4,2.7.9.8,2.3,1,3.4,1,.9,0,2.1-.1,2.9-.7.5-.4.8-.9.8-1.6,0-.6-.2-1.2-.7-1.6-.7-.6-1.6-1.1-2.4-1.4l-2.3-.9c-1.2-.5-2.5-1.2-3.5-2.1-.9-.9-1.3-2-1.3-3.3,0-.8.1-1.6.5-2.3.3-.7.8-1.2,1.4-1.7s1.3-.8,2.1-1c.8-.2,1.7-.3,2.6-.3,1.2,0,2.5.1,3.6.4.8.2,1.7.6,2.3,1.2.5.5.9,1.1.9,1.9.1.8.1,1.6.1,2.4v.4h-1.5l-.1-.3c-.2-1-.6-2-1.4-2.7-.9-.8-2.1-1-3.3-1-.8,0-1.9.1-2.6.7-.5.4-.8.9-.8,1.6,0,.6.3,1.1.7,1.5.6.6,1.3,1,2.1,1.3l2.3.9c1.3.5,2.7,1.2,3.8,2.2,1.1.9,1.5,2.1,1.5,3.4Zm-37.6-12.1c.4-.4,1-.8,1.5-1.1.9-.5,2-.7,3-.7.4,0,.9.1,1.3.1.4.1.9.2,1.2.5.3.2.6.5.8.8.2.3.4.7.6,1l.2.3-2.1,1.6-.2-.3c-.3-.3-.6-.6-1-.7-.5-.2-1.1-.3-1.7-.3-.7,0-1.3.1-1.9.5-.5.3-1,.7-1.3,1.1v14.2h-4.2v-13.6c0-.8-.1-1.8-.4-2.6-.3-.7-1.1-.8-1.8-.8h-.8v-1.6h3.4c.8,0,1.7.1,2.4.5.5.4.8.7,1,1.1Zm-25.4,6.4c0-1.5-.2-3.2-.9-4.4-.6-1-1.4-1.5-2.6-1.5-.5,0-.9.1-1.3.4-.5.3-.8.8-1.1,1.3-.4.6-.6,1.3-.8,2s-.3,1.5-.3,2.2h7Zm-7.1,2.4c0,.8.1,1.6.3,2.4.2.8.5,1.5.9,2.1s.9,1,1.5,1.4c.6.3,1.3.5,2,.5,1,0,2-.2,2.8-.7s1.5-1.3,2.1-2.1l.2-.3,1.4,1-.2.3c-.8,1.3-1.8,2.5-3.1,3.2-1.2.7-2.6,1-4,1-1.3,0-2.5-.2-3.6-.8-1-.5-1.9-1.2-2.6-2.1-.7-.9-1.2-1.9-1.6-3.1-.4-1.2-.5-2.5-.5-3.7,0-1.3.2-2.5.5-3.7.3-1.1.8-2.1,1.6-3,.7-.9,1.5-1.6,2.5-2.1s2.2-.8,3.4-.8c2.2,0,4.5.5,6,2.3s1.9,4.1,1.9,6.4l-.1,1.9h-11.4v-.1Zm-32.2,5.3c.5.2,1,.5,1.5.7s1.1.3,1.6.3c.7,0,1.4-.1,1.9-.5.6-.4,1-.9,1.3-1.5.4-.7.6-1.5.8-2.3.2-1,.3-2,.3-3s-.1-2-.2-3c-.1-.8-.4-1.6-.7-2.3-.3-.6-.7-1.1-1.2-1.5s-1.1-.5-1.7-.5c-.4,0-.9,0-1.3.2-.3.1-.7.3-1,.5s-.5.4-.8.7c-.2.2-.4.4-.5.7v11.5h0Zm-.4-14.1c.5-.5,1-.8,1.6-1.1,1-.6,2.3-.7,3.5-.7,1.1,0,2.2.2,3.2.8.9.5,1.6,1.2,2.2,2.1.6.9,1.1,2,1.3,3,.3,1.2.4,2.5.4,3.7s-.1,2.5-.4,3.7c-.3,1.1-.7,2.1-1.4,3-.6.9-1.4,1.6-2.4,2.1-1,.6-2.2.8-3.4.8-.9,0-1.9-.1-2.8-.4-.5-.2-1-.3-1.5-.5v7.7h-4.2v-20.7c0-.8-.1-1.8-.4-2.6-.3-.7-1.1-.8-1.8-.8h-1.2v-1.6h3.8c.8,0,1.7.1,2.4.5.5.3.8.6,1.1,1Zm-26.1,15.6c-.5.5-1.2.9-1.9,1.2-1,.5-2,.6-3.1.6-.8,0-1.6-.1-2.5-.3-.8-.2-1.6-.6-2.2-1.1-.7-.6-1.2-1.4-1.6-2.2-.4-1.1-.6-2.3-.6-3.5v-6.8c0-.8-.1-1.8-.4-2.6-.3-.7-1.1-.8-1.8-.8h-.8v-1.6h3.4c.6,0,1.2,0,1.7.2.5.1.9.4,1.3.8.3.5.5,1,.6,1.6.1.8.2,1.6.2,2.3v6.8c0,.7.1,1.6.3,2.2.2.5.5,1,.9,1.4.3.3.7.6,1.2.8.4.2.9.2,1.4.2.7,0,1.3-.2,1.9-.5.5-.3,1-.7,1.5-1.2v-14.6h4.2v18.5h-2.5l-1.2-1.4Z"/>
  <path class="logo-ags-svg02" d="m120.3,123.1l-9.5,14.7v35.2c0,3.9-3.2,7.1-7.1,7.1h-27.2c11.8-18.8,28.4-39.2,43.8-57m.3-51.7l-9.8,18.5v32.1c9.2-5.7,17.1-9.5,20-10.6-.8.5-1.7,1.1-2.5,1.7h0c-.4.3-.8.6-1.2.8h0c-.4.3-.8.6-1.2.8h0c-.4.3-.8.6-1.2.8h0c-.4.3-.8.6-1.2.9h-.1c-.4.3-.8.6-1.2.9h0c-.4.3-.8.6-1.2.9h0c-.4.3-.8.6-1.2.9h0c-.4.3-.8.6-1.2.9h0c-.4.3-.8.6-1.2.9h0c-.4.3-.8.6-1.2.9h0c-.8.6-1.6,1.3-2.3,1.9l-.1.1c-.4.3-.8.6-1.2,1h0c-.4.3-.8.6-1.1,1h0l-.4.4h0c-16.1,13.7-30.2,29.8-41.6,45.4-.4-1.2-.7-2.3-1.1-3.5,11-29.3,30.3-67.8,52.2-96.7Zm-69,88.8c-3.6,7-6.8,13.7-9.4,19.9h-.8c1.8-9.8,4.3-20.6,7.3-31.9,1,4,1.9,8,2.9,12ZM94.4,20.9c-2.1,7.2-4.1,14.5-5.5,21.8h14.8c3.9,0,7.1,3.2,7.1,7.1v21.4c8.3-6,16-9.9,18.8-11-.5.4-1.1.7-1.6,1.1h0c-.5.4-1.1.8-1.6,1.2h0c-.5.4-1.1.8-1.6,1.2h0c-.5.4-1.1.8-1.6,1.3h0c-1.1.9-2.2,1.8-3.3,2.7h0c-.5.5-1.1.9-1.6,1.4h0c-1.1,1-2.2,2-3.3,3h0c-.5.5-1.1,1-1.6,1.6h0l-1.6,1.6h0l-.7.7h0c-18.6,18.5-36.8,44.3-50.9,68.8-2-5.2-4-10.2-6-15.1,10.6-36.2,25.6-75.9,40.2-108.8ZM7.1,42.8h64.6C83.1,25.2,99.9,3.2,104.1,0h0l-.1.1-.1.1h0l-.3.4h0c-.2.3-.5.7-.8,1.2l-.1.2h0v.1c-.2.2-.3.5-.5.8h0c-.2.3-.4.6-.7,1h0c-.5.7-1,1.5-1.6,2.4l-.1.1c-.3.4-.6.9-.9,1.4h0c-.3.5-.7,1-1,1.6h0c-.3.5-.7,1.1-1,1.6l-.1.2c-.4.6-.7,1.1-1.1,1.7v.1c-.4.6-.8,1.2-1.2,1.9l-.1.2c-.4.6-.8,1.3-1.2,2l-.1.1c-.4.7-.9,1.4-1.3,2.1h0c-.5.7-.9,1.5-1.4,2.3l-.1.1c-.5.8-1,1.6-1.4,2.4h0c-.5.8-1,1.6-1.5,2.4l-.2.3c-.5.8-1,1.7-1.5,2.5h0c-.5.9-1,1.7-1.6,2.6l-.1.2c-.5.9-1.1,1.8-1.6,2.7l-.1.2c-.5.9-1.1,1.9-1.7,2.8h0c-.6,1-1.1,1.9-1.7,2.9l-.2.4c-.3.5-.6,1.1-.9,1.6h0c-10.5,18.2-22.6,40.7-33.5,64.8-11.7-25.8-21.5-43.3-21.5-43.3,5.8,15.3,11.8,33.5,17.4,52.5-6.7,15.5-12.6,34.6-17.3,53-3.8-21.9-8.5-39.1-13.8-53,1.6,11.4,6,38.6,6.8,63.4H7.1c-3.9,0-7.1-3.2-7.1-7.1V49.8c.1-3.9,3.3-7,7.1-7Z"/>
  <path class="logo-ags-svg01" d="m655.2,62.8v1.9h-3.7v9.7h-2.3v-9.7h-3.7v-1.9h9.7Zm12.6,11.7l-.4-6.9c0-.9,0-2-.1-3.3h-.1c-.3,1-.6,2.4-1,3.5l-2.1,6.5h-2.4l-2.1-6.6c-.2-.9-.6-2.3-.8-3.3h-.1c0,1.1,0,2.2-.1,3.3l-.4,6.9h-2.2l.9-11.7h3.5l2,5.7c.3.9.5,1.8.8,3h0c.3-1.1.6-2.1.8-2.9l2-5.7h3.3l.9,11.7h-2.4v-.2Z"/>
</svg>