<svg width="1897" height="500" viewBox="0 0 1897 500" fill="none" xmlns="http://www.w3.org/2000/svg">
<path fill-rule="evenodd" clip-rule="evenodd" d="M238.728 1C232.953 1.461 227.103 2.138 225.728 2.504L226 2.43975C226 2.43975 227.956 2.008 225.728 2.504C225.971 2.44989 203.887 6.09002 190.745 9.948C149.396 22.0849 115.286 42.3022 86.021 72.018C65.4581 92.8979 49.313 116.626 37.463 143.383C28.172 164.362 23.412 180.057 19.551 202.442C16.491 220.186 16.215 264.366 19.058 281.251C24.114 311.272 34.8371 339.646 51.854 368.031C61.209 383.635 68.207 392.883 70.659 392.883C71.218 392.883 73.743 389.296 76.272 384.913C78.8 380.529 82.862 374.375 85.298 371.238C87.752 368.078 89.728 364.452 89.728 363.108C89.728 361.774 86.635 354.991 82.855 348.033C69.603 323.643 61.637 299.789 57.593 272.383C55.887 260.823 55.88 225.372 57.58 212.883C65.108 157.598 110.5 90.633 130.695 74.543C144.18 63.7991 150.747 57.775 161.728 50.879C180 40 180 40 180 40C202.069 28.8921 224.147 22.495 249.206 18.808C265.682 16.384 295.077 16.19 309.985 18.406C342.223 23.2 373.728 34.5861 399.217 50.654C415.249 60.7619 411.813 53.5989 395.333 42.559C366.93 23.5321 332.025 9.50997 299.228 3.952C277.21 0.220019 259.38 -0.649991 238.728 1ZM146.459 344.421C124.686 347.388 111.221 353.485 98.343 366.206C87.7501 376.67 76.728 393.543 76.728 399.294C76.728 405.656 112.832 436.47 136.728 450.502C188.166 480.709 245.247 490.454 302.209 478.753C329.952 473.054 360.526 459.863 384.228 443.365C405.569 428.511 433.56 402.214 432.094 398.395C431.054 395.685 423.931 394.615 411.728 395.334C390.836 396.567 370.94 400.021 333.728 408.878C293.966 418.341 278.691 420.883 261.591 420.883C246.764 420.883 237.992 418.479 228.967 411.941C224.6 408.777 218.957 401.321 220.08 400.197C220.435 399.842 226.914 400.765 234.477 402.248C261.409 407.529 273.311 407.851 290.728 403.77C301.749 401.188 312.228 396.125 312.228 393.383C312.228 391.169 302.551 385.898 279.673 375.65C235.699 355.951 204.576 346.715 172.728 343.912C159.099 342.713 158.971 342.715 146.459 344.421Z" fill="white"/>
<path fill-rule="evenodd" clip-rule="evenodd" d="M264.701 24.3578C245.275 26.4695 227.461 30.0484 213.528 34.64C190.901 42.0968 174.531 50.506 153.129 65.6699C143.314 72.6248 140.486 75.2176 142.72 75.2176C143.611 75.2176 149.99 71.9258 157.316 67.6866C178.14 55.6342 199.953 48.0359 228.25 42.9759C235.542 41.6721 264.644 41.3315 273.295 42.4492C292.63 44.947 301.204 46.5954 315.931 50.6485C321.114 52.0751 340.103 59.5764 346.964 62.9088C354.204 66.4243 367.544 75.1691 376.027 81.9596C398.894 100.264 415.212 121.131 430.731 151.912C446.745 183.676 454.661 218.128 452.919 248.469C452.217 260.702 448.645 282.524 445.616 293.092C441.095 308.868 430.311 332.057 420.982 346.065C417.041 351.983 415.548 353.346 410.016 356.082C401.353 360.363 392.066 362.399 378.251 363.043C360.495 363.87 347.379 359.882 333.74 349.508C319.783 338.892 305.714 319.663 300.596 304.208L298.53 297.97H294.234C291.873 297.97 289.615 297.441 289.218 296.796C288.09 294.961 288.685 283.905 290.284 277.002C296.497 250.175 310.522 229.934 333.975 213.948C347.832 204.502 362.632 198.996 374.802 198.757C382.572 198.605 390.312 200.185 390.312 201.923C390.312 202.374 387.984 203.063 385.14 203.453C373.736 205.016 354.051 213.517 339.86 223.006C330.719 229.119 314.867 244.971 309.447 253.42C301.895 265.193 297.705 278.171 297.705 289.788C297.705 296.712 297.819 297.073 300.319 298.027C302.092 298.706 306.046 298.682 312.618 297.955C337.486 295.205 350.032 286.104 376.738 251.439C393.079 230.23 393.458 229.798 400.123 224.802C408.103 218.821 413.307 217.401 424.891 218.042C430.182 218.336 434.739 218.344 435.019 218.063C435.646 217.435 433.341 213.696 428.876 208.099C421.136 198.398 404.819 188.236 390.312 184.082C373.019 179.13 348.909 180.678 327.988 188.084C304.564 196.375 290.648 208.942 281.828 229.77C278.048 238.697 275.245 249.977 274.435 259.52C273.812 266.867 272.467 271.031 271.485 268.652C270.969 267.399 266.796 261.006 262.19 254.41C254.739 243.738 248.179 238.833 236.326 235.07C210.909 226.999 178.221 240.103 161.424 265.095C159.488 267.977 158.142 270.961 158.434 271.726C159.026 273.277 163.506 274.872 177.881 278.65C183.231 280.057 193.649 283.594 201.033 286.513C225.207 296.065 232.456 297.687 243.237 295.956C250.008 294.869 260.998 290.27 263.203 287.6C265.37 284.976 263.378 281.781 255.577 275.366C246.158 267.622 230.832 259.956 221.765 258.454C213.302 257.052 197.053 257.082 189.968 258.511C180.133 260.496 181.889 257.359 192.774 253.497C201.386 250.442 213.59 249.793 223.701 251.851C239.872 255.144 249.945 260.629 261.833 272.615C271.41 282.272 275.192 290.209 278.973 308.602C282.774 327.09 287.569 339.321 295.804 351.525C307.077 368.232 323.572 380.618 344.501 388.091C358.061 392.933 365.192 393.999 384.029 394C407.828 394.001 419.207 391.039 433.661 381.078C439.217 377.249 450.587 365.917 455.97 358.843C469.302 341.323 480.157 311.497 485.873 276.685C493.718 228.905 486.748 181.268 465.552 137.789C451.474 108.911 434.168 87.0185 411.06 68.8528C380.671 44.9629 351.388 32.1016 313.961 26.2051C304.358 24.6924 272.587 23.5014 264.701 24.3578ZM264.509 143.953C253.495 146.637 240.344 157.77 233.99 169.79C225.039 186.728 225.808 209.264 235.881 225.077C240.703 232.648 254.357 241.694 254.357 237.317C254.357 236.628 253.009 233.289 251.362 229.896C240.943 208.435 241.57 180.102 252.73 168.031C257.28 163.111 258.339 165.215 254.848 172.239C250.57 180.845 248.121 203.421 250.498 212.334C253.932 225.207 260.527 236.752 264.806 237.377C267.273 237.738 274.881 229.865 277.996 223.73C282.443 214.971 282.905 211.547 282.938 187.089C282.967 166.623 283.189 163.347 284.785 159.864C286.697 155.696 289.779 152.184 294.233 149.103C296.528 147.516 296.712 147.056 295.527 145.865C292.434 142.757 274.067 141.626 264.509 143.953Z" fill="#51B94A"/>
<path d="M570.1 251V146H613.3C622.6 146 630.55 147.5 637.15 150.5C643.85 153.5 649 157.8 652.6 163.4C656.2 169 658 175.65 658 183.35C658 191.05 656.2 197.7 652.6 203.3C649 208.9 643.85 213.2 637.15 216.2C630.55 219.2 622.6 220.7 613.3 220.7H580.9L589.6 211.55V251H570.1ZM589.6 213.65L580.9 204.2H612.4C621 204.2 627.45 202.4 631.75 198.8C636.15 195.1 638.35 189.95 638.35 183.35C638.35 176.65 636.15 171.5 631.75 167.9C627.45 164.3 621 162.5 612.4 162.5H580.9L589.6 152.9V213.65ZM677.473 251V146H720.673C729.973 146 737.923 147.5 744.523 150.5C751.223 153.5 756.373 157.8 759.973 163.4C763.573 169 765.373 175.65 765.373 183.35C765.373 191.05 763.573 197.7 759.973 203.3C756.373 208.8 751.223 213.05 744.523 216.05C737.923 218.95 729.973 220.4 720.673 220.4H688.273L696.973 211.55V251H677.473ZM746.173 251L719.623 212.9H740.473L767.173 251H746.173ZM696.973 213.65L688.273 204.35H719.773C728.373 204.35 734.823 202.5 739.123 198.8C743.523 195.1 745.723 189.95 745.723 183.35C745.723 176.65 743.523 171.5 739.123 167.9C734.823 164.3 728.373 162.5 719.773 162.5H688.273L696.973 152.9V213.65ZM787.19 251V146H806.69V251H787.19ZM867.64 252.5C859.44 252.5 851.59 251.35 844.09 249.05C836.59 246.65 830.64 243.6 826.24 239.9L832.99 224.75C837.19 228.05 842.39 230.8 848.59 233C854.79 235.2 861.14 236.3 867.64 236.3C873.14 236.3 877.59 235.7 880.99 234.5C884.39 233.3 886.89 231.7 888.49 229.7C890.09 227.6 890.89 225.25 890.89 222.65C890.89 219.45 889.74 216.9 887.44 215C885.14 213 882.14 211.45 878.44 210.35C874.84 209.15 870.79 208.05 866.29 207.05C861.89 206.05 857.44 204.9 852.94 203.6C848.54 202.2 844.49 200.45 840.79 198.35C837.19 196.15 834.24 193.25 831.94 189.65C829.64 186.05 828.49 181.45 828.49 175.85C828.49 170.15 829.99 164.95 832.99 160.25C836.09 155.45 840.74 151.65 846.94 148.85C853.24 145.95 861.19 144.5 870.79 144.5C877.09 144.5 883.34 145.3 889.54 146.9C895.74 148.5 901.14 150.8 905.74 153.8L899.59 168.95C894.89 166.15 890.04 164.1 885.04 162.8C880.04 161.4 875.24 160.7 870.64 160.7C865.24 160.7 860.84 161.35 857.44 162.65C854.14 163.95 851.69 165.65 850.09 167.75C848.59 169.85 847.84 172.25 847.84 174.95C847.84 178.15 848.94 180.75 851.14 182.75C853.44 184.65 856.39 186.15 859.99 187.25C863.69 188.35 867.79 189.45 872.29 190.55C876.79 191.55 881.24 192.7 885.64 194C890.14 195.3 894.19 197 897.79 199.1C901.49 201.2 904.44 204.05 906.64 207.65C908.94 211.25 910.09 215.8 910.09 221.3C910.09 226.9 908.54 232.1 905.44 236.9C902.44 241.6 897.79 245.4 891.49 248.3C885.19 251.1 877.24 252.5 867.64 252.5ZM949.261 251V162.5H914.461V146H1003.56V162.5H968.761V251H949.261ZM1018.2 251V146H1037.7V251H1018.2ZM1066.1 251V146H1082.15L1148 226.85H1140.05V146H1159.4V251H1143.35L1077.5 170.15H1085.45V251H1066.1ZM1205.53 189.65H1257.73V205.7H1205.53V189.65ZM1207.03 234.65H1266.28V251H1187.53V146H1264.18V162.35H1207.03V234.65Z" fill="white"/>
<line x1="572" y1="321" x2="1554" y2="321" stroke="white" stroke-width="8"/>
<path d="M1590.1 397V292H1609.6V380.5H1664.5V397H1590.1ZM1679.89 397V292H1699.39V380.5H1754.29V397H1679.89ZM1816.39 398.5C1808.39 398.5 1800.94 397.2 1794.04 394.6C1787.24 391.9 1781.29 388.15 1776.19 383.35C1771.19 378.45 1767.29 372.7 1764.49 366.1C1761.69 359.5 1760.29 352.3 1760.29 344.5C1760.29 336.7 1761.69 329.5 1764.49 322.9C1767.29 316.3 1771.24 310.6 1776.34 305.8C1781.44 300.9 1787.39 297.15 1794.19 294.55C1800.99 291.85 1808.44 290.5 1816.54 290.5C1825.14 290.5 1832.99 292 1840.09 295C1847.19 297.9 1853.19 302.25 1858.09 308.05L1845.49 319.9C1841.69 315.8 1837.44 312.75 1832.74 310.75C1828.04 308.65 1822.94 307.6 1817.44 307.6C1811.94 307.6 1806.89 308.5 1802.29 310.3C1797.79 312.1 1793.84 314.65 1790.44 317.95C1787.14 321.25 1784.54 325.15 1782.64 329.65C1780.84 334.15 1779.94 339.1 1779.94 344.5C1779.94 349.9 1780.84 354.85 1782.64 359.35C1784.54 363.85 1787.14 367.75 1790.44 371.05C1793.84 374.35 1797.79 376.9 1802.29 378.7C1806.89 380.5 1811.94 381.4 1817.44 381.4C1822.94 381.4 1828.04 380.4 1832.74 378.4C1837.44 376.3 1841.69 373.15 1845.49 368.95L1858.09 380.95C1853.19 386.65 1847.19 391 1840.09 394C1832.99 397 1825.09 398.5 1816.39 398.5Z" fill="#51B94A"/>
<path d="M1382.15 251.5C1373.95 251.5 1366.4 250.2 1359.5 247.6C1352.7 244.9 1346.75 241.15 1341.65 236.35C1336.55 231.45 1332.6 225.7 1329.8 219.1C1327 212.5 1325.6 205.3 1325.6 197.5C1325.6 189.7 1327 182.5 1329.8 175.9C1332.6 169.3 1336.55 163.6 1341.65 158.8C1346.85 153.9 1352.9 150.15 1359.8 147.55C1366.7 144.85 1374.25 143.5 1382.45 143.5C1391.35 143.5 1399.35 144.95 1406.45 147.85C1413.65 150.75 1419.7 155 1424.6 160.6L1412.3 172.6C1408.2 168.5 1403.75 165.5 1398.95 163.6C1394.25 161.6 1389.05 160.6 1383.35 160.6C1377.85 160.6 1372.75 161.5 1368.05 163.3C1363.35 165.1 1359.3 167.65 1355.9 170.95C1352.5 174.25 1349.85 178.15 1347.95 182.65C1346.15 187.15 1345.25 192.1 1345.25 197.5C1345.25 202.8 1346.15 207.7 1347.95 212.2C1349.85 216.7 1352.5 220.65 1355.9 224.05C1359.3 227.35 1363.3 229.9 1367.9 231.7C1372.5 233.5 1377.6 234.4 1383.2 234.4C1388.4 234.4 1393.4 233.6 1398.2 232C1403.1 230.3 1407.75 227.5 1412.15 223.6L1423.25 238.15C1417.75 242.55 1411.35 245.9 1404.05 248.2C1396.85 250.4 1389.55 251.5 1382.15 251.5ZM1404.8 235.6V196.3H1423.25V238.15L1404.8 235.6ZM1448.97 250V145H1492.17C1501.47 145 1509.42 146.5 1516.02 149.5C1522.72 152.5 1527.87 156.8 1531.47 162.4C1535.07 168 1536.87 174.65 1536.87 182.35C1536.87 190.05 1535.07 196.7 1531.47 202.3C1527.87 207.8 1522.72 212.05 1516.02 215.05C1509.42 217.95 1501.47 219.4 1492.17 219.4H1459.77L1468.47 210.55V250H1448.97ZM1517.67 250L1491.12 211.9H1511.97L1538.67 250H1517.67ZM1468.47 212.65L1459.77 203.35H1491.27C1499.87 203.35 1506.32 201.5 1510.62 197.8C1515.02 194.1 1517.22 188.95 1517.22 182.35C1517.22 175.65 1515.02 170.5 1510.62 166.9C1506.32 163.3 1499.87 161.5 1491.27 161.5H1459.77L1468.47 151.9V212.65ZM1576.69 188.65H1628.89V204.7H1576.69V188.65ZM1578.19 233.65H1637.44V250H1558.69V145H1635.34V161.35H1578.19V233.65ZM1677.17 188.65H1729.37V204.7H1677.17V188.65ZM1678.67 233.65H1737.92V250H1659.17V145H1735.82V161.35H1678.67V233.65ZM1759.66 250V145H1775.71L1841.56 225.85H1833.61V145H1852.96V250H1836.91L1771.06 169.15H1779.01V250H1759.66Z" fill="#50B949"/>
</svg>
